<svg width="21" height="21" viewBox="0 0 21 21" fill="none" xmlns="http://www.w3.org/2000/svg">
<path d="M10.5 0C6.87563 0 3.9375 2.93813 3.9375 6.5625V10.4307C3.9375 10.4955 3.91833 10.5588 3.88239 10.6127L1.64703 13.9658C1.4289 14.293 1.3125 14.6774 1.3125 15.0707C1.3125 16.1707 2.20428 17.0625 3.30434 17.0625H17.6957C18.7957 17.0625 19.6875 16.1707 19.6875 15.0707C19.6875 14.6774 19.5711 14.293 19.353 13.9658L17.1176 10.6127C17.0817 10.5588 17.0625 10.4955 17.0625 10.4307V6.5625C17.0625 2.93813 14.1244 0 10.5 0Z" fill="#3586FF"/>
<path d="M13.1048 18.7025C12.9436 19.9977 11.8388 21 10.5 21C9.16115 21 8.05641 19.9977 7.89523 18.7025C7.87285 18.5226 8.02191 18.375 8.20312 18.375H12.7969C12.9781 18.375 13.1272 18.5226 13.1048 18.7025Z" fill="#3586FF"/>
</svg>
