<svg width="33" height="38" viewBox="0 0 33 38" fill="none" xmlns="http://www.w3.org/2000/svg">
<path fill-rule="evenodd" clip-rule="evenodd" d="M5.14026 3.5625C4.80371 3.5625 4.53088 3.82833 4.53088 4.15625V33.8438C4.53088 34.1717 4.80371 34.4375 5.14026 34.4375H28.2965C28.6331 34.4375 28.9059 34.1717 28.9059 33.8438V14.25H22.2028C19.8469 14.25 17.9371 12.3892 17.9371 10.0938V3.5625H5.14026ZM21.5934 3.70855V10.0938C21.5934 10.4217 21.8662 10.6875 22.2028 10.6875H28.756C28.7468 10.6773 28.7373 10.6673 28.7274 10.6577L21.624 3.7364C21.6141 3.72675 21.6039 3.71746 21.5934 3.70855ZM0.874634 4.15625C0.874634 1.86082 2.78442 0 5.14026 0H21.1931C22.3244 0 23.4094 0.437889 24.2094 1.21734L31.3128 8.13859C32.1127 8.91804 32.5621 9.9752 32.5621 11.0775V33.8438C32.5621 36.1392 30.6523 38 28.2965 38H5.14026C2.78442 38 0.874634 36.1392 0.874634 33.8438V4.15625Z" fill="white"/>
</svg>
