<svg width="41" height="34" viewBox="0 0 41 34" fill="none" xmlns="http://www.w3.org/2000/svg">
<path fill-rule="evenodd" clip-rule="evenodd" d="M4.48438 0.920502C3.29504 0.920502 2.15443 1.35325 1.31344 2.12358C0.472458 2.89391 0 3.9387 0 5.0281V29.6737C0 31.9411 2.009 33.7813 4.48438 33.7813H36.5156C37.7049 33.7813 38.8455 33.3485 39.6865 32.5781C40.5275 31.8078 41 30.763 41 29.6737V9.7225C41 8.63309 40.5275 7.58831 39.6865 6.81798C38.8455 6.04765 37.7049 5.6149 36.5156 5.6149H19.8594C19.7599 5.6149 19.6618 5.59368 19.5729 5.55296C19.4839 5.51221 19.4066 5.45306 19.3469 5.38018L17.0406 2.56354C16.195 1.53077 14.8625 0.920502 13.4531 0.920502H4.48438Z" fill="white"/>
</svg>
