<svg width="31" height="31" viewBox="0 0 31 31" fill="none" xmlns="http://www.w3.org/2000/svg">
<path fill-rule="evenodd" clip-rule="evenodd" d="M10.1719 31C12.0445 31 13.5625 29.482 13.5625 27.6094L13.5625 3.39062C13.5625 1.51803 12.0445 0 10.1719 0H5.32813C3.45554 0 1.9375 1.51803 1.9375 3.39062V27.6094C1.9375 29.482 3.45553 31 5.32812 31H10.1719ZM10.6562 27.6094C10.6562 27.8769 10.4394 28.0938 10.1719 28.0938H5.32813C5.06061 28.0938 4.84375 27.8769 4.84375 27.6094L4.84375 3.39062C4.84375 3.12311 5.06061 2.90625 5.32813 2.90625L10.1719 2.90625C10.4394 2.90625 10.6563 3.12311 10.6563 3.39062L10.6562 27.6094Z" fill="white" fill-opacity="0.68"/>
<path fill-rule="evenodd" clip-rule="evenodd" d="M25.6719 31C27.5445 31 29.0625 29.482 29.0625 27.6094L29.0625 3.39062C29.0625 1.51803 27.5445 0 25.6719 0H20.8281C18.9555 0 17.4375 1.51803 17.4375 3.39062L17.4375 27.6094C17.4375 29.482 18.9555 31 20.8281 31H25.6719ZM26.1562 27.6094C26.1562 27.8769 25.9394 28.0938 25.6719 28.0938H20.8281C20.5606 28.0938 20.3438 27.8769 20.3438 27.6094L20.3438 3.39062C20.3438 3.12311 20.5606 2.90625 20.8281 2.90625L25.6719 2.90625C25.9394 2.90625 26.1563 3.12311 26.1563 3.39062L26.1562 27.6094Z" fill="white" fill-opacity="0.68"/>
</svg>
