<svg width="31" height="31" viewBox="0 0 31 31" fill="none" xmlns="http://www.w3.org/2000/svg">
<path fill-rule="evenodd" clip-rule="evenodd" d="M2.90625 15.5C2.90625 8.54467 8.54467 2.90625 15.5 2.90625C22.4554 2.90625 28.0938 8.54467 28.0938 15.5C28.0938 22.4554 22.4554 28.0938 15.5 28.0938C8.54467 28.0938 2.90625 22.4554 2.90625 15.5ZM15.5 0C6.93958 0 0 6.93958 0 15.5C0 24.0605 6.93958 31 15.5 31C24.0605 31 31 24.0605 31 15.5C31 6.93958 24.0605 0 15.5 0ZM12.3586 10.1276C12.0357 9.93395 11.625 10.1665 11.625 10.543V20.4571C11.625 20.8336 12.0357 21.0661 12.3586 20.8723L20.6202 15.9153C20.9337 15.7272 20.9337 15.2728 20.6202 15.0847L12.3586 10.1276Z" fill="white" fill-opacity="0.68"/>
</svg>
