<svg width="29" height="28" viewBox="0 0 29 28" fill="none" xmlns="http://www.w3.org/2000/svg">
<path fill-rule="evenodd" clip-rule="evenodd" d="M24.7278 0.803482C24.6135 0.689204 24.4585 0.625 24.2969 0.625C24.1353 0.625 23.9803 0.689204 23.866 0.803482C23.7517 0.91776 23.6875 1.07276 23.6875 1.23438V4.6875H20.2344C20.0728 4.6875 19.9178 4.7517 19.8035 4.86598C19.6892 4.98026 19.625 5.13526 19.625 5.29688C19.625 5.45849 19.6892 5.61349 19.8035 5.72777C19.9178 5.84205 20.0728 5.90625 20.2344 5.90625H23.6875V9.35938C23.6875 9.52098 23.7517 9.67601 23.866 9.79024C23.9803 9.90456 24.1353 9.96875 24.2969 9.96875C24.4585 9.96875 24.6135 9.90456 24.7278 9.79024C24.842 9.67601 24.9062 9.52098 24.9062 9.35938V5.90625H28.3594C28.521 5.90625 28.676 5.84205 28.7902 5.72777C28.9046 5.61349 28.9688 5.45849 28.9688 5.29688C28.9688 5.13526 28.9046 4.98026 28.7902 4.86598C28.676 4.7517 28.521 4.6875 28.3594 4.6875H24.9062V1.23438C24.9062 1.07276 24.842 0.91776 24.7278 0.803482ZM9.10054 13.3614L9.10064 13.3615C9.28278 13.4525 9.48369 13.5 9.6875 13.5H17.8125C18.1274 13.5 18.4294 13.6251 18.6522 13.8478C18.8749 14.0705 19 14.3726 19 14.6875V25.3125C19 25.6273 18.8749 25.9294 18.6521 26.1521C18.4294 26.3749 18.1273 26.5 17.8125 26.5H2.1875C1.53228 26.5 1 25.9677 1 25.3125V12.1875C1 11.8726 1.12511 11.5705 1.34781 11.3478C1.57051 11.1251 1.87255 11 2.1875 11H6.5625C6.93524 11 7.28885 11.1768 7.5125 11.475L8.6375 12.975L8.63753 12.975C8.75975 13.138 8.91824 13.2703 9.10054 13.3614ZM9.4375 12.375C9.46661 12.4138 9.50435 12.4453 9.54775 12.467C9.59114 12.4887 9.63899 12.5 9.6875 12.5H17.8125C18.3926 12.5 18.949 12.7305 19.3592 13.1407C19.7695 13.5509 20 14.1073 20 14.6875V25.3125C20 25.8926 19.7695 26.449 19.3592 26.8592C18.949 27.2695 18.3926 27.5 17.8125 27.5H2.1875C0.98 27.5 0 26.52 0 25.3125V12.1875C0 11.6073 0.230467 11.0509 0.640704 10.6407C1.05094 10.2305 1.60734 10 2.1875 10H6.5625C7.25 10 7.9 10.325 8.3125 10.875L9.4375 12.375Z" fill="white"/>
</svg>
